# xmcd
#
# Track frame offsets: 
#        150
#        13987
#        28012
#        49687
#        61412
#        77562
#        91962
#        102900
#        130175
#        141737
#        154412
#        171587
#        183712
#        194550
#        211250
#
# Disc length: 3002 seconds
#
# Revision: 1
# Processed by: cddbd v1.5.2PL0 Copyright (c) Steve Scherf et al.
# Submitted via: ExactAudioCopy v1.0b3
#
DISCID=e10bb80f
DTITLE=Mojo Blues Band - Their hottest Bricks CD 1
DYEAR=1998
DGENRE=Blues
TTITLE0=Choo Choo Ch' Boogie
TTITLE1=Hey Bartender
TTITLE2=Blues Stay Away
TTITLE3=Rockin' Pneumonia and the Boogie Woogie Flu
TTITLE4=Someday
TTITLE5=Doc's Houseparty
TTITLE6=Mama He treats your daughter mean
TTITLE7=In the Evening
TTITLE8=Special Rider goes funky
TTITLE9=Oo Ee Baby
TTITLE10=I'm a woman
TTITLE11=Drinking Wine Spo-Dee-O-Dee
TTITLE12=Feelin' Shakey
TTITLE13=Shooee... Get Out !
TTITLE14=Just messing around
EXTD=
EXTT0=
EXTT1=
EXTT2=
EXTT3=
EXTT4=
EXTT5=
EXTT6=
EXTT7=
EXTT8=
EXTT9=
EXTT10=
EXTT11=
EXTT12=
EXTT13=
EXTT14=
PLAYORDER=
